<svg width="1253" height="1156" viewBox="0 0 1253 1156" fill="none" xmlns="http://www.w3.org/2000/svg">
<path opacity="0.5" d="M399.673 820.972H63.986C38.7392 820.972 20.0581 809.678 7.94265 787.092C-4.17279 764.506 -2.42788 742.428 13.1774 720.858L732.306 -320.039C742.964 -334.376 756.285 -344.21 772.269 -349.54C788.254 -354.868 804.239 -354.043 820.223 -347.065C836.208 -340.721 848.863 -330.063 858.188 -315.09C867.513 -300.118 870.843 -284.131 868.18 -267.129L781.213 425.092H1188.07C1215.6 425.092 1235.01 437.21 1246.3 461.447C1257.59 485.682 1254.61 508.584 1237.36 530.155L445.153 1480.84C434.495 1494.16 420.762 1502.82 403.952 1506.82C387.143 1510.81 371.571 1509.32 357.236 1502.34C342.265 1496 330.688 1485.66 322.505 1471.32C314.323 1456.98 311.247 1441 313.277 1423.36L399.673 820.972Z" fill="url(#paint0_linear_126_839)"/>
<defs>
<linearGradient id="paint0_linear_126_839" x1="626.5" y1="-353" x2="626.5" y2="1509" gradientUnits="userSpaceOnUse">
<stop stop-color="#FBFBFF"/>
<stop offset="1" stop-color="#29C6B7" stop-opacity="0"/>
</linearGradient>
</defs>
</svg>
