<svg width="160" height="51" viewBox="0 0 160 51" fill="none" xmlns="http://www.w3.org/2000/svg">
<path d="M103.841 24.8899C105.791 25.5374 107 27.0315 107 28.9987C107 31.9869 104.434 33.8545 100.633 33.8545H94.5136V16.3486H100.041C103.521 16.3486 106.136 17.7431 106.136 21.1298C106.136 22.9476 105.223 24.1678 103.841 24.8899ZM100.041 18.9633H97.7709V23.9187H100.041C101.966 23.9187 102.879 22.848 102.879 21.329C102.879 19.7851 101.917 18.9633 100.041 18.9633ZM97.7709 31.2398H100.732C102.805 31.2398 103.718 29.9699 103.718 28.7248C103.718 27.3303 102.657 26.1599 100.51 26.1599H97.7709V31.2398Z" fill="#29C6B7"/>
<path d="M91.4895 16.3486V19.1376H83.9385V23.7444H90.3791V26.4587H83.9385V31.0655H91.4895V33.8545H80.6812V16.3486H91.4895Z" fill="#29C6B7"/>
<path d="M77.773 25.0891C77.773 27.9528 76.6625 30.3683 74.8611 31.9869L77.082 35H74.565L73.2078 33.1324C71.9493 33.8047 70.4934 34.1782 68.9141 34.1782C63.7319 34.1782 60.0551 30.5675 60.0551 25.0891C60.0551 19.7851 63.8307 16 68.9387 16C74.0962 16 77.773 19.7104 77.773 25.0891ZM68.9387 31.2149C69.8024 31.2149 70.6414 31.0157 71.4064 30.6173L68.5933 26.7326H70.9869L72.9364 29.3971C73.8494 28.3512 74.417 26.9069 74.417 25.0891C74.417 21.2045 71.8999 18.9882 68.9141 18.9384C65.9035 18.9882 63.3865 21.2294 63.3865 25.0642C63.3865 28.9987 65.8541 31.2149 68.9387 31.2149Z" fill="#29C6B7"/>
<path d="M54.009 26.2844V16.3486H57.1429V33.8545H54.083L45.8163 23.1219L44.5578 21.1796L44.6071 24.4915V33.8545H41.4732V16.3486H44.5578L52.405 26.8073L54.083 29.1481L54.009 26.2844Z" fill="#29C6B7"/>
<path d="M29.7061 34.1782C24.524 34.1782 20.8472 30.5675 20.8472 25.0891C20.8472 19.7851 24.6227 16 29.7308 16C34.8882 16 38.565 19.7104 38.565 25.0891C38.565 30.3683 34.7648 34.1782 29.7061 34.1782ZM29.7308 31.2149C32.6179 31.2149 35.209 28.9489 35.209 25.0891C35.209 21.1796 32.692 18.9384 29.7061 18.9384C26.6955 18.9384 24.1785 21.2294 24.1785 25.0642C24.1785 28.9987 26.6462 31.2149 29.7308 31.2149Z" fill="#29C6B7"/>
<path d="M9.03166 26.5334L14.9541 16.3486H17.9646V33.8545H14.806V22.0511L9.96938 30.4181H7.84718L3.13394 22.2005V33.8545H0V16.3486H3.03523V16.3984L9.03166 26.5334Z" fill="#29C6B7"/>
<g filter="url(#filter0_d_2_8)">
<path d="M123.802 32.155H113.889C113.144 32.155 112.592 31.8456 112.235 31.227C111.877 30.6084 111.928 30.0037 112.389 29.4129L133.624 0.902802C133.939 0.510096 134.332 0.240755 134.804 0.0947775C135.276 -0.0511544 135.748 -0.0285643 136.22 0.162548C136.692 0.336311 137.066 0.628242 137.342 1.03834C137.617 1.44844 137.715 1.88633 137.637 2.352L135.069 21.3119H147.083C147.896 21.3119 148.469 21.6438 148.802 22.3076C149.136 22.9714 149.048 23.5987 148.538 24.1895L125.145 50.2286C124.83 50.5935 124.425 50.8307 123.928 50.9402C123.432 51.0497 122.972 51.0088 122.549 50.8177C122.107 50.6439 121.765 50.3607 121.523 49.968C121.282 49.5753 121.191 49.1374 121.251 48.6542L123.802 32.155Z" fill="url(#paint0_linear_2_8)"/>
<path d="M126.295 30.018H123.802H114.603L135.308 2.22039C135.346 2.17597 135.377 2.15701 135.417 2.14263C135.417 2.14285 135.418 2.14307 135.418 2.1433L135.45 2.15613L135.482 2.16793C135.491 2.17097 135.498 2.17387 135.504 2.17656L132.951 21.025L132.623 23.4488H135.069H146.331L123.555 48.8005L123.541 48.8166L123.527 48.833C123.525 48.8346 123.524 48.8359 123.523 48.8369C123.522 48.8375 123.52 48.8384 123.517 48.8395C123.509 48.8426 123.493 48.8479 123.468 48.8534C123.441 48.8595 123.422 48.8617 123.412 48.8625L123.383 48.8496L125.914 32.4815L126.295 30.018Z" stroke="white" stroke-width="4.27391"/>
</g>
<defs>
<filter id="filter0_d_2_8" x="77.8087" y="-18.8052" width="105.383" height="119.383" filterUnits="userSpaceOnUse" color-interpolation-filters="sRGB">
<feFlood flood-opacity="0" result="BackgroundImageFix"/>
<feColorMatrix in="SourceAlpha" type="matrix" values="0 0 0 0 0 0 0 0 0 0 0 0 0 0 0 0 0 0 127 0" result="hardAlpha"/>
<feOffset dy="15.3861"/>
<feGaussianBlur stdDeviation="17.0956"/>
<feColorMatrix type="matrix" values="0 0 0 0 0.439216 0 0 0 0 0.564706 0 0 0 0 0.690196 0 0 0 0.12 0"/>
<feBlend mode="normal" in2="BackgroundImageFix" result="effect1_dropShadow_2_8"/>
<feBlend mode="normal" in="SourceGraphic" in2="effect1_dropShadow_2_8" result="shape"/>
</filter>
<linearGradient id="paint0_linear_2_8" x1="134.091" y1="42.3" x2="148.142" y2="5.45036" gradientUnits="userSpaceOnUse">
<stop stop-color="#7BCBD4"/>
<stop offset="0.927091" stop-color="#29C6B7"/>
</linearGradient>
</defs>
</svg>
