<svg width="14" height="14" viewBox="0 0 14 14" fill="none" xmlns="http://www.w3.org/2000/svg">
<path d="M4.08188 9.91372C4.22032 9.77604 4.28954 9.612 4.28954 9.42161C4.28954 9.23122 4.22032 9.06927 4.08188 8.93576L2.83596 7.69664H8.13724C8.33282 7.69664 8.49762 7.62969 8.63167 7.4958C8.76572 7.36189 8.83274 7.19725 8.83274 7.00189C8.83274 6.80651 8.76572 6.64289 8.63167 6.51103C8.49762 6.37917 8.33282 6.31324 8.13724 6.31324H2.87108L4.14448 5.04679C4.27121 4.92645 4.33292 4.77265 4.32962 4.5854C4.32631 4.39816 4.25418 4.23539 4.11324 4.09709C3.98128 3.95879 3.81633 3.89129 3.61839 3.89459C3.42046 3.89787 3.25227 3.96835 3.11384 4.10603L0.669304 6.53723C0.598144 6.6097 0.545741 6.68742 0.512098 6.77039C0.478467 6.85338 0.46165 6.93852 0.46165 7.02583C0.46165 7.11314 0.478467 7.19726 0.512098 7.27817C0.545741 7.35909 0.598144 7.43556 0.669304 7.50759L3.1062 9.93118C3.23293 10.0572 3.39096 10.1202 3.58029 10.1202C3.76962 10.1202 3.93682 10.0514 4.08188 9.91372ZM12.1376 13.5385C12.5209 13.5385 12.8502 13.4025 13.1256 13.1306C13.4009 12.8587 13.5386 12.5335 13.5386 12.1551V1.85482C13.5386 1.47365 13.4009 1.14615 13.1256 0.8723C12.8502 0.598465 12.5209 0.461548 12.1376 0.461548H7.654C7.45843 0.461548 7.29362 0.530428 7.15957 0.66819C7.02553 0.805963 6.95851 0.972248 6.95851 1.16704C6.95851 1.36184 7.02553 1.52517 7.15957 1.65703C7.29362 1.78889 7.45843 1.85482 7.654 1.85482H12.1376V12.1551H7.654C7.45843 12.1551 7.29362 12.222 7.15957 12.3559C7.02553 12.4898 6.95851 12.6545 6.95851 12.8498C6.95851 13.0452 7.02553 13.2088 7.15957 13.3407C7.29362 13.4725 7.45843 13.5385 7.654 13.5385H12.1376Z" fill="#1B2559"/>
</svg>
