<svg width="41" height="41" viewBox="0 0 41 41" fill="none" xmlns="http://www.w3.org/2000/svg">
<g clip-path="url(#clip0_5_3)">
<rect x="1" y="1.5" width="39" height="39" rx="19.5" fill="url(#paint0_linear_5_3)"/>
<g filter="url(#filter0_d_5_3)">
<path d="M25.6937 17.6205C25.6322 17.6205 25.58 17.6078 25.5369 17.5823C25.4938 17.5569 25.46 17.5123 25.4354 17.4487L24.9004 16.1504L23.5535 15.5394C23.492 15.5139 23.449 15.4789 23.4244 15.4344C23.3998 15.3898 23.3875 15.3357 23.3875 15.2721C23.3875 15.2084 23.3998 15.1543 23.4244 15.1098C23.449 15.0652 23.492 15.0302 23.5535 15.0048L24.9004 14.4129L25.4354 13.1718C25.46 13.1082 25.4938 13.0636 25.5369 13.0382C25.58 13.0127 25.6322 13 25.6937 13C25.7552 13 25.8075 13.0127 25.8506 13.0382C25.8936 13.0636 25.9274 13.1082 25.952 13.1718L26.4871 14.4129L27.8339 15.0048C27.8954 15.0302 27.9385 15.0652 27.9631 15.1098C27.9877 15.1543 28 15.2084 28 15.2721C28 15.3357 27.9877 15.3898 27.9631 15.4344C27.9385 15.4789 27.8954 15.5139 27.8339 15.5394L26.4871 16.1504L25.952 17.4487C25.9274 17.5123 25.8936 17.5569 25.8506 17.5823C25.8075 17.6078 25.7552 17.6205 25.6937 17.6205ZM25.6937 29C25.6445 29 25.5953 28.9873 25.5461 28.9618C25.4969 28.9364 25.46 28.8918 25.4354 28.8282L24.9004 27.5871L23.572 26.9952C23.5105 26.9698 23.4674 26.9348 23.4428 26.8902C23.4182 26.8457 23.4059 26.7916 23.4059 26.7279C23.4059 26.6643 23.4182 26.6102 23.4428 26.5656C23.4674 26.5211 23.5105 26.4861 23.572 26.4606L24.9004 25.8687L25.4354 24.5513C25.46 24.4877 25.4938 24.4431 25.5369 24.4177C25.58 24.3922 25.6322 24.3795 25.6937 24.3795C25.7552 24.3795 25.8075 24.3922 25.8506 24.4177C25.8936 24.4431 25.9274 24.4877 25.952 24.5513L26.4871 25.8687L27.8155 26.4606C27.877 26.4861 27.92 26.5211 27.9446 26.5656C27.9692 26.6102 27.9815 26.6643 27.9815 26.7279C27.9815 26.7916 27.9692 26.8457 27.9446 26.8902C27.92 26.9348 27.877 26.9698 27.8155 26.9952L26.4871 27.5871L25.952 28.8282C25.9274 28.8918 25.8905 28.9364 25.8413 28.9618C25.7921 28.9873 25.7429 29 25.6937 29ZM17.5941 25.6969C17.4957 25.6969 17.4004 25.6683 17.3081 25.611C17.2159 25.5537 17.1451 25.4741 17.0959 25.3723L15.8967 22.7184L13.3137 21.5155C13.2153 21.4646 13.1384 21.3914 13.083 21.2959C13.0277 21.2005 13 21.1018 13 21C13 20.8982 13.0277 20.7995 13.083 20.7041C13.1384 20.6086 13.2153 20.5354 13.3137 20.4845L15.8967 19.2816L17.0959 16.6468C17.1451 16.5322 17.2159 16.4463 17.3081 16.389C17.4004 16.3317 17.4957 16.3031 17.5941 16.3031C17.6925 16.3031 17.7878 16.3317 17.8801 16.389C17.9723 16.4463 18.0431 16.5259 18.0923 16.6277L19.31 19.2816L21.8745 20.4845C21.9852 20.5354 22.0683 20.6086 22.1236 20.7041C22.179 20.7995 22.2066 20.8982 22.2066 21C22.2066 21.1018 22.179 21.2005 22.1236 21.2959C22.0683 21.3914 21.9852 21.4646 21.8745 21.5155L19.31 22.7184L18.0923 25.3723C18.0431 25.4869 17.9723 25.5696 17.8801 25.6205C17.7878 25.6714 17.6925 25.6969 17.5941 25.6969Z" fill="#29C6B7"/>
</g>
</g>
<defs>
<filter id="filter0_d_5_3" x="-27.95" y="4.55" width="96.9" height="97.9" filterUnits="userSpaceOnUse" color-interpolation-filters="sRGB">
<feFlood flood-opacity="0" result="BackgroundImageFix"/>
<feColorMatrix in="SourceAlpha" type="matrix" values="0 0 0 0 0 0 0 0 0 0 0 0 0 0 0 0 0 0 127 0" result="hardAlpha"/>
<feOffset dy="32.5"/>
<feGaussianBlur stdDeviation="20.475"/>
<feComposite in2="hardAlpha" operator="out"/>
<feColorMatrix type="matrix" values="0 0 0 0 0.262745 0 0 0 0 0.0941176 0 0 0 0 1 0 0 0 0.28 0"/>
<feBlend mode="normal" in2="BackgroundImageFix" result="effect1_dropShadow_5_3"/>
<feBlend mode="normal" in="SourceGraphic" in2="effect1_dropShadow_5_3" result="shape"/>
</filter>
<linearGradient id="paint0_linear_5_3" x1="20.5" y1="1.5" x2="20.5" y2="40.5" gradientUnits="userSpaceOnUse">
<stop stop-color="#FBFBFF"/>
<stop offset="1" stop-color="#C6FFFA"/>
</linearGradient>
<clipPath id="clip0_5_3">
<rect width="41" height="41" fill="white"/>
</clipPath>
</defs>
</svg>
