<svg width="31" height="42" viewBox="0 0 31 42" fill="none" xmlns="http://www.w3.org/2000/svg">
<g clip-path="url(#clip0_5_3)">
<g filter="url(#filter0_d_5_3)">
<path d="M10.6123 25.9586H3.37879C2.83476 25.9586 2.43222 25.7281 2.17115 25.2672C1.91008 24.8063 1.94768 24.3557 2.28395 23.9155L17.7799 2.67268C18.0096 2.38007 18.2966 2.17939 18.6411 2.07062C18.9855 1.96188 19.33 1.97872 19.6744 2.12111C20.0188 2.25058 20.2915 2.4681 20.4925 2.77367C20.6934 3.07923 20.7652 3.4055 20.7078 3.75247L18.8338 17.8794H27.6009C28.1941 17.8794 28.6123 18.1267 28.8556 18.6214C29.0989 19.1159 29.0347 19.5834 28.6629 20.0236L11.5923 39.4252C11.3626 39.6971 11.0667 39.8739 10.7045 39.9554C10.3423 40.037 10.0067 40.0066 9.69781 39.8642C9.37523 39.7347 9.12576 39.5236 8.94942 39.231C8.77311 38.9384 8.70684 38.6122 8.75058 38.2522L10.6123 25.9586Z" fill="url(#paint0_linear_5_3)"/>
<path d="M12.0954 26.1832L12.3565 24.4586H10.6123H3.74443L18.9713 3.5848C19.0133 3.53481 19.0467 3.51606 19.0884 3.50239C19.0919 3.50358 19.0961 3.50518 19.1013 3.50732L19.1238 3.51663L19.1466 3.5252C19.1822 3.53855 19.2014 3.55033 19.2188 3.57031L17.3468 17.6822L17.1217 19.3794H18.8338H27.2317L10.4661 38.4344L10.4561 38.4458L10.4463 38.4574C10.4399 38.465 10.4357 38.4688 10.4338 38.4704C10.4319 38.472 10.4305 38.473 10.429 38.4739L10.4289 38.4739C10.4272 38.475 10.4128 38.4836 10.3749 38.4921C10.3466 38.4985 10.3294 38.4998 10.3215 38.5L10.2916 38.4862L10.2565 38.4721C10.2474 38.4684 10.2417 38.4656 10.2387 38.4639C10.2384 38.4634 10.238 38.4628 10.2375 38.4622C10.2376 38.4584 10.2377 38.4532 10.2383 38.4464L12.0954 26.1832Z" stroke="white" stroke-width="3"/>
</g>
</g>
<defs>
<filter id="filter0_d_5_3" x="-32.1913" y="-16.8052" width="95.3825" height="106.383" filterUnits="userSpaceOnUse" color-interpolation-filters="sRGB">
<feFlood flood-opacity="0" result="BackgroundImageFix"/>
<feColorMatrix in="SourceAlpha" type="matrix" values="0 0 0 0 0 0 0 0 0 0 0 0 0 0 0 0 0 0 127 0" result="hardAlpha"/>
<feOffset dy="15.3861"/>
<feGaussianBlur stdDeviation="17.0956"/>
<feColorMatrix type="matrix" values="0 0 0 0 0.439216 0 0 0 0 0.564706 0 0 0 0 0.690196 0 0 0 0.12 0"/>
<feBlend mode="normal" in2="BackgroundImageFix" result="effect1_dropShadow_5_3"/>
<feBlend mode="normal" in="SourceGraphic" in2="effect1_dropShadow_5_3" result="shape"/>
</filter>
<linearGradient id="paint0_linear_5_3" x1="18.1206" y1="33.5176" x2="28.7529" y2="6.2086" gradientUnits="userSpaceOnUse">
<stop stop-color="#7BCBD4"/>
<stop offset="0.927091" stop-color="#29C6B7"/>
</linearGradient>
<clipPath id="clip0_5_3">
<rect width="31" height="42" fill="white"/>
</clipPath>
</defs>
</svg>
