<svg width="24" height="24" viewBox="0 0 24 24" fill="none" xmlns="http://www.w3.org/2000/svg">
<path d="M19.3001 7.55C19.2168 7.55 19.1459 7.53333 19.0876 7.5C19.0293 7.46667 18.9834 7.40833 18.9501 7.325L18.2251 5.625L16.4001 4.825C16.3168 4.79167 16.2584 4.74583 16.2251 4.6875C16.1918 4.62917 16.1751 4.55833 16.1751 4.475C16.1751 4.39167 16.1918 4.32083 16.2251 4.2625C16.2584 4.20417 16.3168 4.15833 16.4001 4.125L18.2251 3.35L18.9501 1.725C18.9834 1.64167 19.0293 1.58333 19.0876 1.55C19.1459 1.51667 19.2168 1.5 19.3001 1.5C19.3834 1.5 19.4543 1.51667 19.5126 1.55C19.5709 1.58333 19.6168 1.64167 19.6501 1.725L20.3751 3.35L22.2001 4.125C22.2834 4.15833 22.3418 4.20417 22.3751 4.2625C22.4084 4.32083 22.4251 4.39167 22.4251 4.475C22.4251 4.55833 22.4084 4.62917 22.3751 4.6875C22.3418 4.74583 22.2834 4.79167 22.2001 4.825L20.3751 5.625L19.6501 7.325C19.6168 7.40833 19.5709 7.46667 19.5126 7.5C19.4543 7.53333 19.3834 7.55 19.3001 7.55ZM19.3001 22.45C19.2334 22.45 19.1668 22.4333 19.1001 22.4C19.0334 22.3667 18.9834 22.3083 18.9501 22.225L18.2251 20.6L16.4251 19.825C16.3418 19.7917 16.2834 19.7458 16.2501 19.6875C16.2168 19.6292 16.2001 19.5583 16.2001 19.475C16.2001 19.3917 16.2168 19.3208 16.2501 19.2625C16.2834 19.2042 16.3418 19.1583 16.4251 19.125L18.2251 18.35L18.9501 16.625C18.9834 16.5417 19.0293 16.4833 19.0876 16.45C19.1459 16.4167 19.2168 16.4 19.3001 16.4C19.3834 16.4 19.4543 16.4167 19.5126 16.45C19.5709 16.4833 19.6168 16.5417 19.6501 16.625L20.3751 18.35L22.1751 19.125C22.2584 19.1583 22.3168 19.2042 22.3501 19.2625C22.3834 19.3208 22.4001 19.3917 22.4001 19.475C22.4001 19.5583 22.3834 19.6292 22.3501 19.6875C22.3168 19.7458 22.2584 19.7917 22.1751 19.825L20.3751 20.6L19.6501 22.225C19.6168 22.3083 19.5668 22.3667 19.5001 22.4C19.4334 22.4333 19.3668 22.45 19.3001 22.45ZM8.3251 18.125C8.19176 18.125 8.0626 18.0875 7.9376 18.0125C7.8126 17.9375 7.71676 17.8333 7.6501 17.7L6.0251 14.225L2.5251 12.65C2.39176 12.5833 2.2876 12.4875 2.2126 12.3625C2.1376 12.2375 2.1001 12.1083 2.1001 11.975C2.1001 11.8417 2.1376 11.7125 2.2126 11.5875C2.2876 11.4625 2.39176 11.3667 2.5251 11.3L6.0251 9.725L7.6501 6.275C7.71676 6.125 7.8126 6.0125 7.9376 5.9375C8.0626 5.8625 8.19176 5.825 8.3251 5.825C8.45843 5.825 8.5876 5.8625 8.7126 5.9375C8.8376 6.0125 8.93343 6.11667 9.0001 6.25L10.6501 9.725L14.1251 11.3C14.2751 11.3667 14.3876 11.4625 14.4626 11.5875C14.5376 11.7125 14.5751 11.8417 14.5751 11.975C14.5751 12.1083 14.5376 12.2375 14.4626 12.3625C14.3876 12.4875 14.2751 12.5833 14.1251 12.65L10.6501 14.225L9.0001 17.7C8.93343 17.85 8.8376 17.9583 8.7126 18.025C8.5876 18.0917 8.45843 18.125 8.3251 18.125Z" fill="#29C6B7"/>
</svg>
