<svg width="41" height="41" viewBox="0 0 41 41" fill="none" xmlns="http://www.w3.org/2000/svg">
<g clip-path="url(#clip0_5_3)">
<circle cx="20" cy="21" r="19.5" stroke="#E2E8F0"/>
<g filter="url(#filter0_d_5_3)">
<path d="M20 20.0461C19.099 20.0461 18.3577 19.7622 17.7762 19.1944C17.1946 18.6266 16.9039 17.9028 16.9039 17.023C16.9039 16.1375 17.1946 15.4122 17.7762 14.8473C18.3577 14.2824 19.099 14 20 14C20.901 14 21.6423 14.2824 22.2238 14.8473C22.8054 15.4122 23.0961 16.1375 23.0961 17.023C23.0961 17.9028 22.8054 18.6266 22.2238 19.1944C21.6423 19.7622 20.901 20.0461 20 20.0461ZM14.0769 27C13.7778 27 13.5235 26.8978 13.3141 26.6933C13.1047 26.4888 13 26.2406 13 25.9485V25.2703C13 24.7808 13.1328 24.3543 13.3985 23.991C13.6641 23.6276 14.0093 23.3484 14.4341 23.1533C15.4165 22.7269 16.3636 22.4056 17.2754 22.1894C18.1872 21.9733 19.0954 21.8652 20 21.8652C20.9046 21.8652 21.8104 21.9756 22.7174 22.1964C23.6244 22.4172 24.5691 22.7362 25.5515 23.1533C25.9859 23.3484 26.3359 23.6276 26.6015 23.991C26.8672 24.3543 27 24.7808 27 25.2703V25.9485C27 26.2406 26.8953 26.4888 26.6859 26.6933C26.4765 26.8978 26.2222 27 25.9231 27H14.0769Z" fill="#29C6B7"/>
</g>
</g>
<defs>
<filter id="filter0_d_5_3" x="-27.95" y="5.55" width="95.9" height="94.9" filterUnits="userSpaceOnUse" color-interpolation-filters="sRGB">
<feFlood flood-opacity="0" result="BackgroundImageFix"/>
<feColorMatrix in="SourceAlpha" type="matrix" values="0 0 0 0 0 0 0 0 0 0 0 0 0 0 0 0 0 0 127 0" result="hardAlpha"/>
<feOffset dy="32.5"/>
<feGaussianBlur stdDeviation="20.475"/>
<feComposite in2="hardAlpha" operator="out"/>
<feColorMatrix type="matrix" values="0 0 0 0 0.262745 0 0 0 0 0.0941176 0 0 0 0 1 0 0 0 0.28 0"/>
<feBlend mode="normal" in2="BackgroundImageFix" result="effect1_dropShadow_5_3"/>
<feBlend mode="normal" in="SourceGraphic" in2="effect1_dropShadow_5_3" result="shape"/>
</filter>
<clipPath id="clip0_5_3">
<rect width="41" height="41" fill="white"/>
</clipPath>
</defs>
</svg>
