<svg width="41" height="41" viewBox="0 0 41 41" fill="none" xmlns="http://www.w3.org/2000/svg">
<circle cx="20" cy="21" r="20" fill="url(#paint0_linear_5_3)"/>
<g filter="url(#filter0_ddi_5_3)">
<path d="M25.54 17.8526C25.4744 17.8526 25.4186 17.8395 25.3727 17.8133C25.3268 17.7871 25.2907 17.7412 25.2645 17.6757L24.6938 16.3389L23.2571 15.7097C23.1915 15.6835 23.1456 15.6475 23.1194 15.6016C23.0931 15.5557 23.08 15.5 23.08 15.4345C23.08 15.369 23.0931 15.3133 23.1194 15.2674C23.1456 15.2215 23.1915 15.1855 23.2571 15.1593L24.6938 14.5498L25.2645 13.272C25.2907 13.2064 25.3268 13.1606 25.3727 13.1344C25.4186 13.1081 25.4744 13.095 25.54 13.095C25.6056 13.095 25.6614 13.1081 25.7073 13.1344C25.7532 13.1606 25.7893 13.2064 25.8155 13.272L26.3862 14.5498L27.8229 15.1593C27.8885 15.1855 27.9344 15.2215 27.9606 15.2674C27.9869 15.3133 28 15.369 28 15.4345C28 15.5 27.9869 15.5557 27.9606 15.6016C27.9344 15.6475 27.8885 15.6835 27.8229 15.7097L26.3862 16.3389L25.8155 17.6757C25.7893 17.7412 25.7532 17.7871 25.7073 17.8133C25.6614 17.8395 25.6056 17.8526 25.54 17.8526ZM25.54 29.5697C25.4875 29.5697 25.435 29.5566 25.3826 29.5304C25.3301 29.5042 25.2907 29.4583 25.2645 29.3928L24.6938 28.1149L23.2768 27.5055C23.2112 27.4793 23.1653 27.4432 23.1391 27.3973C23.1128 27.3515 23.0997 27.2958 23.0997 27.2302C23.0997 27.1647 23.1128 27.109 23.1391 27.0631C23.1653 27.0173 23.2112 26.9812 23.2768 26.955L24.6938 26.3456L25.2645 24.989C25.2907 24.9235 25.3268 24.8776 25.3727 24.8514C25.4186 24.8252 25.4744 24.8121 25.54 24.8121C25.6056 24.8121 25.6614 24.8252 25.7073 24.8514C25.7532 24.8776 25.7893 24.9235 25.8155 24.989L26.3862 26.3456L27.8032 26.955C27.8688 26.9812 27.9147 27.0173 27.941 27.0631C27.9672 27.109 27.9803 27.1647 27.9803 27.2302C27.9803 27.2958 27.9672 27.3515 27.941 27.3973C27.9147 27.4432 27.8688 27.4793 27.8032 27.5055L26.3862 28.1149L25.8155 29.3928C25.7893 29.4583 25.7499 29.5042 25.6974 29.5304C25.645 29.5566 25.5925 29.5697 25.54 29.5697ZM16.9005 26.1686C16.7955 26.1686 16.6939 26.1391 16.5955 26.0802C16.4971 26.0212 16.4216 25.9393 16.3691 25.8344L15.09 23.1017L12.3348 21.8632C12.2298 21.8108 12.1478 21.7354 12.0888 21.6371C12.0297 21.5388 12.0002 21.4372 12.0002 21.3324C12.0002 21.2275 12.0297 21.1259 12.0888 21.0277C12.1478 20.9294 12.2298 20.854 12.3348 20.8016L15.09 19.563L16.3691 16.85C16.4216 16.732 16.4971 16.6436 16.5955 16.5846C16.6939 16.5256 16.7955 16.4961 16.9005 16.4961C17.0055 16.4961 17.1071 16.5256 17.2055 16.5846C17.3039 16.6436 17.3794 16.7255 17.4319 16.8303L18.7307 19.563L21.4663 20.8016C21.5843 20.854 21.6729 20.9294 21.7319 21.0277C21.791 21.1259 21.8205 21.2275 21.8205 21.3324C21.8205 21.4372 21.791 21.5388 21.7319 21.6371C21.6729 21.7354 21.5843 21.8108 21.4663 21.8632L18.7307 23.1017L17.4319 25.8344C17.3794 25.9524 17.3039 26.0376 17.2055 26.09C17.1071 26.1424 17.0055 26.1686 16.9005 26.1686Z" fill="url(#paint1_linear_5_3)" shape-rendering="crispEdges"/>
</g>
<defs>
<filter id="filter0_ddi_5_3" x="5.63343" y="7.53326" width="28.0015" height="29.5741" filterUnits="userSpaceOnUse" color-interpolation-filters="sRGB">
<feFlood flood-opacity="0" result="BackgroundImageFix"/>
<feColorMatrix in="SourceAlpha" type="matrix" values="0 0 0 0 0 0 0 0 0 0 0 0 0 0 0 0 0 0 127 0" result="hardAlpha"/>
<feOffset dx="-1.31726" dy="2.48816"/>
<feGaussianBlur stdDeviation="2.52475"/>
<feComposite in2="hardAlpha" operator="out"/>
<feColorMatrix type="matrix" values="0 0 0 0 0.0506089 0 0 0 0 0.0159861 0 0 0 0 0.191833 0 0 0 0.25 0"/>
<feBlend mode="normal" in2="BackgroundImageFix" result="effect1_dropShadow_5_3"/>
<feColorMatrix in="SourceAlpha" type="matrix" values="0 0 0 0 0 0 0 0 0 0 0 0 0 0 0 0 0 0 127 0" result="hardAlpha"/>
<feOffset dx="1.24408" dy="-1.1709"/>
<feGaussianBlur stdDeviation="2.19544"/>
<feComposite in2="hardAlpha" operator="out"/>
<feColorMatrix type="matrix" values="0 0 0 0 1 0 0 0 0 1 0 0 0 0 1 0 0 0 0.35 0"/>
<feBlend mode="normal" in2="effect1_dropShadow_5_3" result="effect2_dropShadow_5_3"/>
<feBlend mode="normal" in="SourceGraphic" in2="effect2_dropShadow_5_3" result="shape"/>
<feColorMatrix in="SourceAlpha" type="matrix" values="0 0 0 0 0 0 0 0 0 0 0 0 0 0 0 0 0 0 127 0" result="hardAlpha"/>
<feOffset dy="3.07361"/>
<feGaussianBlur stdDeviation="1.9393"/>
<feComposite in2="hardAlpha" operator="arithmetic" k2="-1" k3="1"/>
<feColorMatrix type="matrix" values="0 0 0 0 1 0 0 0 0 1 0 0 0 0 1 0 0 0 1 0"/>
<feBlend mode="normal" in2="shape" result="effect3_innerShadow_5_3"/>
</filter>
<linearGradient id="paint0_linear_5_3" x1="20" y1="1" x2="20" y2="41" gradientUnits="userSpaceOnUse">
<stop stop-color="#7BCBD4"/>
<stop offset="1" stop-color="#29C6B7"/>
</linearGradient>
<linearGradient id="paint1_linear_5_3" x1="22.7969" y1="20.8497" x2="20.3183" y2="32.3723" gradientUnits="userSpaceOnUse">
<stop stop-color="white" stop-opacity="0.96"/>
<stop offset="1" stop-color="white" stop-opacity="0.23"/>
</linearGradient>
</defs>
</svg>
